<svg xmlns="http://www.w3.org/2000/svg" width="94.527" height="70" viewBox="0 0 94.527 70">
  <g id="ico_pay_fail" transform="translate(-1137.999 -407.001)">
    <path id="credit_card" d="M-13299.246-2004.871h-51.442a12.308,12.308,0,0,1-8.837-3.674,11.972,11.972,0,0,1-3.474-8.636v-34.507a12.324,12.324,0,0,1,12.311-12.31h58.933a12.324,12.324,0,0,1,12.31,12.31v26.886a15.736,15.736,0,0,0-3.2-.664v-11.974h-77.254v20.259a9.219,9.219,0,0,0,9.209,9.209h50.768a15.661,15.661,0,0,0,.675,3.1Zm-60.651-42.846v7.079h77.254v-7.079Zm9.209-13.18a9.219,9.219,0,0,0-9.209,9.209v.873h77.353v-.873a9.22,9.22,0,0,0-9.211-9.209Zm27.236,34.216h-8.333a1.536,1.536,0,0,1-1.554-1.551,1.536,1.536,0,0,1,1.554-1.551h8.333a1.534,1.534,0,0,1,1.55,1.551A1.534,1.534,0,0,1-13323.452-2026.681Zm-15.022,0h-14.833a1.534,1.534,0,0,1-1.551-1.551,1.534,1.534,0,0,1,1.551-1.551h14.833a1.535,1.535,0,0,1,1.551,1.551A1.535,1.535,0,0,1-13338.475-2026.681Z" transform="translate(14500.999 2471)"/>
    <path id="icon_fail" d="M-14487.256-2441.171a15.677,15.677,0,0,1-11.156-4.62,15.675,15.675,0,0,1-4.619-11.155,15.675,15.675,0,0,1,4.619-11.155,15.677,15.677,0,0,1,11.156-4.62,15.673,15.673,0,0,1,11.155,4.62,15.672,15.672,0,0,1,4.62,11.155,15.672,15.672,0,0,1-4.62,11.155A15.673,15.673,0,0,1-14487.256-2441.171Zm-.233-13.306h0l3.911,3.911a1.6,1.6,0,0,0,1.1.5,1.6,1.6,0,0,0,1.1-.5,1.625,1.625,0,0,0,.453-1.149,1.638,1.638,0,0,0-.453-1.158l-3.91-3.911,3.91-3.912a1.7,1.7,0,0,0,0-2.307,1.629,1.629,0,0,0-1.153-.452,1.633,1.633,0,0,0-1.153.452l-3.61,3.912-4.016-3.912a1.625,1.625,0,0,0-1.152-.452,1.625,1.625,0,0,0-1.151.452,1.63,1.63,0,0,0-.452,1.154,1.628,1.628,0,0,0,.452,1.153l3.911,3.912-3.911,3.911a1.632,1.632,0,0,0-.452,1.158,1.618,1.618,0,0,0,.452,1.149,1.6,1.6,0,0,0,1.1.5,1.607,1.607,0,0,0,1.105-.5l3.91-3.911Z" transform="translate(15704.007 2918.172)" fill="#ff6035"/>
  </g>
</svg>
