<svg xmlns="http://www.w3.org/2000/svg" width="94.522" height="70" viewBox="0 0 94.522 70">
  <g id="ico_pay_success" transform="translate(-1026.126 -407)">
    <path id="credit_card" d="M-13299.249-2004.871h-51.439a12.323,12.323,0,0,1-8.838-3.674,11.977,11.977,0,0,1-3.472-8.64v-34.506a12.324,12.324,0,0,1,12.31-12.31h58.936a12.322,12.322,0,0,1,12.307,12.31v26.886a15.762,15.762,0,0,0-3.2-.665v-11.974h-77.253v20.259a9.223,9.223,0,0,0,9.212,9.212h50.764a15.707,15.707,0,0,0,.676,3.1Zm-60.651-42.845v7.076h77.253v-7.076Zm9.212-13.183a9.221,9.221,0,0,0-9.212,9.209v.87h77.352v-.87a9.217,9.217,0,0,0-9.2-9.209Zm27.235,34.216h-8.335a1.535,1.535,0,0,1-1.551-1.551,1.535,1.535,0,0,1,1.551-1.551h8.335a1.536,1.536,0,0,1,1.555,1.551A1.536,1.536,0,0,1-13323.453-2026.684Zm-15.024,0h-14.829a1.533,1.533,0,0,1-1.548-1.551,1.533,1.533,0,0,1,1.548-1.551h14.829a1.535,1.535,0,0,1,1.551,1.551A1.535,1.535,0,0,1-13338.478-2026.684Z" transform="translate(14389.125 2471.001)"/>
    <path id="icon_success" d="M-14437.226-2478.451a15.671,15.671,0,0,1-11.154-4.62,15.672,15.672,0,0,1-4.621-11.154,15.67,15.67,0,0,1,4.621-11.154,15.672,15.672,0,0,1,11.154-4.62,15.676,15.676,0,0,1,11.156,4.62,15.677,15.677,0,0,1,4.618,11.154,15.678,15.678,0,0,1-4.618,11.154A15.676,15.676,0,0,1-14437.226-2478.451Zm-6.876-18.721a1.569,1.569,0,0,0-.774.2,1.637,1.637,0,0,0-.6,2.206l3.209,5.518a1.558,1.558,0,0,0,1.1.8h.3a1.95,1.95,0,0,0,1-.3l10.933-8.025a1.709,1.709,0,0,0,.4-2.307,1.658,1.658,0,0,0-1.351-.68,1.8,1.8,0,0,0-.957.28l-9.529,6.92-2.308-3.812A1.683,1.683,0,0,0-14444.1-2497.172Z" transform="translate(15542.1 2955.451)" fill="#11a5a9"/>
  </g>
</svg>
